<?xml version="1.0" encoding="UTF-8"?>
<svg version="1.1" xmlns="http://www.w3.org/2000/svg" width="1536" height="1024">
<path d="M0 0 C506.88 0 1013.76 0 1536 0 C1536 337.92 1536 675.84 1536 1024 C1029.12 1024 522.24 1024 0 1024 C0 686.08 0 348.16 0 0 Z " fill="#FDFDFD" transform="translate(0,0)"/>
<path d="M0 0 C3.465 0.061875 6.93 0.12375 10.5 0.1875 C10.5 8.1075 10.5 16.0275 10.5 24.1875 C7.27734375 24.35026042 4.0546875 24.51302083 0.83203125 24.67578125 C-2.70651817 25.21921616 -4.65097014 26.05705316 -7.5 28.1875 C-10.14309379 32.15214068 -9.78057331 35.56849124 -9.76069641 40.17037964 C-9.76452196 41.10046502 -9.76834751 42.03055041 -9.77228898 42.9888202 C-9.78264304 46.1187429 -9.77862225 49.24848299 -9.7746582 52.37841797 C-9.77900337 54.61702648 -9.78418586 56.85563349 -9.79014587 59.09423828 C-9.80356875 65.18512787 -9.80411085 71.27595554 -9.80158257 77.36685705 C-9.800515 82.44655234 -9.80539079 87.52623499 -9.810188 92.60592759 C-9.82193039 105.27343029 -9.82105163 117.94089499 -9.81463119 130.60839714 C-9.80946282 141.61089198 -9.82071418 152.61329825 -9.83972941 163.61577557 C-9.85909997 174.91037535 -9.86707356 186.20493435 -9.86360615 197.49955475 C-9.86179035 203.84169295 -9.86445896 210.18375007 -9.87832069 216.52587509 C-9.89086713 222.48974773 -9.88898507 228.45344281 -9.87590981 234.41731262 C-9.87353745 236.6082935 -9.87630215 238.79928675 -9.88453293 240.99025345 C-9.89494639 243.97726125 -9.886943 246.96366729 -9.8742218 249.95065308 C-9.88159609 250.82117872 -9.88897037 251.69170437 -9.89656812 252.58860958 C-9.85042209 257.72614272 -9.31486071 261.37263929 -5.5 265.1875 C-3.58905061 265.28408904 -1.67448134 265.30937192 0.23890686 265.30775452 C2.10891106 265.30981651 2.10891106 265.30981651 4.01669312 265.31192017 C5.41094994 265.30838056 6.80520653 265.30474574 8.19946289 265.30102539 C9.65771991 265.30074353 11.11597707 265.30090124 12.57423401 265.3014679 C16.54513485 265.3017559 20.51600575 265.29585877 24.48689961 265.28889394 C28.63225101 265.28266081 32.77760302 265.28205663 36.92295837 265.28086853 C44.77819327 265.27775509 52.63341432 265.26954154 60.48864311 265.25951904 C69.42924399 265.24835829 78.36984552 265.24284755 87.31045163 265.23782361 C105.70697561 265.22735893 124.1034867 265.20975925 142.5 265.1875 C141.94343719 264.15739304 141.38687439 263.12728607 140.81344604 262.06596375 C140.07976621 260.70119025 139.34622234 259.33634366 138.61279297 257.97143555 C138.06313118 256.95538868 138.06313118 256.95538868 137.50236511 255.91881561 C126.30684247 235.04497993 124.77087838 210.24307829 130.4296875 187.44140625 C134.77229502 173.29049555 141.70376267 160.29554449 151.5 149.1875 C151.94214844 148.60355469 152.38429688 148.01960937 152.83984375 147.41796875 C165.62310786 130.82692384 187.61541021 120.03375325 207.875 116.875 C213.12591829 116.23653607 218.21625137 116.00530177 223.5 116.1875 C223.5 111.8975 223.5 107.6075 223.5 103.1875 C215.58 103.6825 215.58 103.6825 207.5 104.1875 C204.5 97.1875 204.5 97.1875 204.5 93.1875 C223.50681898 89.20105107 249.83466459 85.68355863 267.73339844 95.39990234 C269.5 97.1875 269.5 97.1875 269.87133789 99.81958008 C269.82227295 100.85493896 269.77320801 101.89029785 269.72265625 102.95703125 C269.69655273 104.66149414 269.69655273 104.66149414 269.66992188 106.40039062 C269.59862759 108.7893974 269.4999017 111.17775161 269.37304688 113.56445312 C269.34733703 117.06296929 269.43526106 119.84913827 270.5 123.1875 C273.81932916 126.07017701 277.47333469 127.51216694 281.5 129.1875 C283.33862305 130.41333008 283.33862305 130.41333008 284.76953125 131.59375 C285.60871094 132.2846875 286.44789063 132.975625 287.3125 133.6875 C288.16457031 134.3990625 289.01664062 135.110625 289.89453125 135.84375 C292.44450588 137.49579646 292.44450588 137.49579646 295.3203125 136.6640625 C299.84757393 134.56172242 304.2682879 132.29374846 308.66601562 129.93359375 C315.92948191 126.16735197 315.92948191 126.16735197 319.5 127.1875 C321.82298204 129.28007048 323.63559984 131.68705838 325.5 134.1875 C326.02819336 134.87215332 326.55638672 135.55680664 327.10058594 136.26220703 C328.72761397 138.40082635 330.30490953 140.56931879 331.875 142.75 C332.69291016 143.84344727 332.69291016 143.84344727 333.52734375 144.95898438 C335.825055 148.15792823 337.36488818 150.50864548 338.140625 154.40625 C337.28165513 158.13543625 335.68945789 159.5637603 332.875 162.125 C331.51955078 163.42244141 331.51955078 163.42244141 330.13671875 164.74609375 C328.57280792 166.19415934 326.99651893 167.62933033 325.39453125 169.03515625 C323.6617796 170.71239641 322.46825773 171.97569557 321.5 174.1875 C321.74223022 176.80544973 322.46945849 178.89467898 323.421875 181.34375 C324.66572947 184.62464149 325.42824959 187.88842952 326.1875 191.3125 C326.43886719 192.42882812 326.69023437 193.54515625 326.94921875 194.6953125 C327.22185547 195.92894531 327.22185547 195.92894531 327.5 197.1875 C328.55058594 197.44144531 329.60117187 197.69539062 330.68359375 197.95703125 C351.30279714 202.99029714 351.30279714 202.99029714 354.5 206.1875 C355.4619269 213.72730941 354.31926554 221.70169107 353.6875 229.25 C353.61756836 230.17852783 353.54763672 231.10705566 353.47558594 232.0637207 C353.39469727 232.94116943 353.31380859 233.81861816 353.23046875 234.72265625 C353.16239014 235.510354 353.09431152 236.29805176 353.02416992 237.10961914 C352.37060765 239.70042885 351.65855646 240.62144161 349.5 242.1875 C347.20336914 242.8034668 347.20336914 242.8034668 344.53515625 243.13671875 C343.57029297 243.26240234 342.60542969 243.38808594 341.61132812 243.51757812 C340.1021582 243.69450195 340.1021582 243.69450195 338.5625 243.875 C337.56025391 244.00455078 336.55800781 244.13410156 335.52539062 244.26757812 C331.46797648 244.77915336 327.59664245 245.1875 323.5 245.1875 C323.40976562 246.02152344 323.31953125 246.85554687 323.2265625 247.71484375 C322.22875595 252.48392989 320.09499079 256.41478862 317.8515625 260.70898438 C315.84760236 264.74564998 315.21162267 266.88557364 316.5 271.1875 C317.68650975 273.27734067 317.68650975 273.27734067 319.22265625 275.21875 C319.76083984 275.94707031 320.29902344 276.67539062 320.85351562 277.42578125 C321.99425979 278.93547467 323.13749824 280.44328656 324.28320312 281.94921875 C324.82009766 282.67753906 325.35699219 283.40585937 325.91015625 284.15625 C326.40652588 284.81044922 326.90289551 285.46464844 327.41430664 286.13867188 C328.83444964 288.81864489 329.03269149 290.18828893 328.5 293.1875 C325.71528631 296.93919898 322.37099472 300.1608196 319.05786133 303.44628906 C317.44389189 305.05612448 315.86765977 306.69744305 314.29101562 308.34375 C313.26774319 309.37450298 312.2424161 310.40322111 311.21484375 311.4296875 C310.28792725 312.3666748 309.36101074 313.30366211 308.40600586 314.26904297 C305.5 316.1875 305.5 316.1875 301.87963867 316.13916016 C298.86603162 315.29056951 297.10877448 314.64253979 294.7109375 312.71875 C294.07929688 312.23019531 293.44765625 311.74164062 292.796875 311.23828125 C292.16265625 310.72652344 291.5284375 310.21476562 290.875 309.6875 C285.33517885 304.87334489 285.33517885 304.87334489 278.5 303.1875 C276.01235633 304.19234681 273.82899738 305.2135773 271.5 306.5 C260.83166333 312.1875 260.83166333 312.1875 256.5 312.1875 C256.45101563 313.21488281 256.40203125 314.24226563 256.3515625 315.30078125 C255.195018 337.492482 255.195018 337.492482 251.5 341.1875 C246.20272388 341.90371335 240.83958294 341.99997306 235.5 342.1875 C234.6857959 342.22149902 233.8715918 342.25549805 233.03271484 342.29052734 C230.58430259 342.38512182 228.13714815 342.44767839 225.6875 342.5 C224.91728516 342.52980957 224.14707031 342.55961914 223.35351562 342.59033203 C220.27943846 342.62261122 218.10644161 342.6410885 215.59375 340.76171875 C213.92979801 336.84548889 213.39177694 332.88488376 212.8125 328.6875 C212.68294922 327.83285156 212.55339844 326.97820312 212.41992188 326.09765625 C211.87277595 322.38632783 211.5 318.95423185 211.5 315.1875 C210.2315625 315.02314453 210.2315625 315.02314453 208.9375 314.85546875 C198.53597122 313.40161871 198.53597122 313.40161871 194 311.5 C190.1898395 310.07118981 189.24398234 309.90102149 185.5 311.1875 C183.3391092 312.90542238 181.40498679 314.58695938 179.4375 316.5 C178.6630957 317.22993164 178.6630957 317.22993164 177.87304688 317.97460938 C175.63266579 320.09512294 173.47226089 322.21923943 171.44140625 324.54296875 C169.5 326.1875 169.5 326.1875 167.171875 326.75 C163.28485776 325.93168058 160.72702721 323.67459034 157.75 321.1875 C156.83226807 320.44342896 156.83226807 320.44342896 155.89599609 319.68432617 C150.97143131 315.66296516 146.17146219 311.50056959 141.5 307.1875 C141.640625 305.37890625 141.640625 305.37890625 142.5 303.1875 C144.984375 301.65234375 144.984375 301.65234375 148.25 300.125 C161.65914685 293.39341079 172.22207744 282.60438384 180.5 270.1875 C184.31419883 271.58075165 187.51541106 273.38869038 190.9375 275.5625 C197.48580044 279.45257947 204.11513438 281.47266229 211.5 283.1875 C212.33015625 283.38085938 213.1603125 283.57421875 214.015625 283.7734375 C230.92104383 286.59100731 249.83083628 282.30106445 263.875 272.6875 C279.07002026 261.61758833 290.05767146 246.19507878 294.0625 227.59765625 C296.84362507 205.91977959 292.75289056 186.99279274 279.3125 169.4375 C268.56444211 156.89809913 255.10367658 150.50071141 239.5 146.1875 C238.54299194 145.92271851 238.54299194 145.92271851 237.56665039 145.65258789 C221.48469524 142.03343555 203.01405053 146.43274897 188.78515625 154.078125 C172.6056142 164.4668916 161.61156098 180.04984623 157.0234375 198.69921875 C156.28175104 202.22499691 155.79024336 205.58848238 155.5 209.1875 C155.42072266 210.14269531 155.42072266 210.14269531 155.33984375 211.1171875 C154.7111925 225.60349882 159.23801484 241.29397463 167.5 253.0625 C170.57353241 257.72996498 170.57353241 257.72996498 169.9375 261.6875 C168.8984375 263.32421875 168.8984375 263.32421875 167.5 265.1875 C166.97664062 266.01894531 166.45328125 266.85039063 165.9140625 267.70703125 C158.34559473 279.12360183 148.52921047 286.956092 135.5 291.1875 C134.56331482 291.53084381 133.62662964 291.87418762 132.66156006 292.22793579 C126.92038391 293.84234785 120.94244099 293.48225927 115.02832031 293.47802734 C113.66583897 293.4840191 112.30336101 293.49082613 110.94088745 293.49838257 C107.25471221 293.51598586 103.56862994 293.52073559 99.88241673 293.52201414 C97.57450213 293.52343974 95.26661087 293.52771709 92.95870209 293.53300858 C84.89302582 293.55149144 76.82741549 293.55968154 68.76171875 293.55810547 C61.26641982 293.55690516 53.77140935 293.57799015 46.27618337 293.6095928 C39.82240687 293.63582576 33.36872416 293.64646981 26.91489482 293.64519465 C23.06866088 293.64468699 19.22268339 293.65026042 15.37650299 293.67155075 C11.75495317 293.69105167 8.13390129 293.69097787 4.51233292 293.67651749 C2.56667897 293.67346145 0.62102433 293.6900233 -1.32455444 293.70739746 C-10.22437241 293.64428571 -17.56808325 292.0370519 -25.3125 287.5625 C-30.30297691 282.14426792 -34.61111685 275.45599792 -34.6398077 267.94753361 C-34.64549894 267.07811195 -34.65119018 266.2086903 -34.65705389 265.31292254 C-34.65823376 264.35710942 -34.65941364 263.40129631 -34.66062927 262.41651917 C-34.66571709 261.40153459 -34.67080491 260.38655002 -34.67604691 259.34080833 C-34.69180345 255.92325187 -34.70030501 252.5057166 -34.70874023 249.08813477 C-34.71827629 246.64413823 -34.72816734 244.20014306 -34.73838806 241.75614929 C-34.76709422 234.40837924 -34.78686209 227.06060949 -34.80378041 219.71280494 C-34.80857676 217.63626288 -34.81355994 215.55972133 -34.81858563 213.48317981 C-34.84956489 200.58046192 -34.87624306 187.67773951 -34.89300442 174.77499485 C-34.89695376 171.78627578 -34.90095677 168.79755679 -34.9050293 165.80883789 C-34.90654184 164.6946237 -34.90654184 164.6946237 -34.90808494 163.55790012 C-34.92507347 151.538356 -34.96616156 139.51901843 -35.01705229 127.49957503 C-35.06890633 115.15064724 -35.09795715 102.80182544 -35.1052013 90.45278972 C-35.10985447 83.52289303 -35.12450912 76.59333422 -35.1649456 69.66354561 C-35.20297146 63.13900878 -35.21020292 56.61494147 -35.19693947 50.0902729 C-35.19699333 47.70063981 -35.20725305 45.31098087 -35.2286911 42.92144394 C-35.43216588 18.95232422 -35.43216588 18.95232422 -28.5 10.1875 C-19.96736597 1.75913523 -11.67070961 -0.29631295 0 0 Z " fill="#038B91" transform="translate(140.5,377.8125)"/>
<path d="M0 0 C3.06395949 1.21577913 5.69790303 2.72963 8.50390625 4.46875 C9.83456149 5.28527674 11.165298 6.10167104 12.49609375 6.91796875 C13.26018555 7.39024902 14.02427734 7.8625293 14.81152344 8.34912109 C19.62546304 11.31381431 24.46378052 14.23856141 29.29782104 17.1703186 C31.13920292 18.28749706 32.97996919 19.40568318 34.82055664 20.52416992 C41.84975014 24.79506418 48.88677986 29.05245622 55.94140625 33.28125 C57.11231812 33.98350708 57.11231812 33.98350708 58.30688477 34.69995117 C62.54769413 37.2412585 66.79362508 39.77377019 71.04296875 42.30078125 C71.96658203 42.85145264 72.89019531 43.40212402 73.84179688 43.96948242 C75.61764445 45.02814854 77.39492208 46.08442066 79.17382812 47.13793945 C79.96595703 47.61062256 80.75808594 48.08330566 81.57421875 48.5703125 C82.27434082 48.98619629 82.97446289 49.40208008 83.69580078 49.83056641 C85.44140625 50.96875 85.44140625 50.96875 87.44140625 52.96875 C87.68750191 55.68239021 87.68750191 55.68239021 87.68191528 59.20755005 C87.68362413 59.85446017 87.68533298 60.50137029 87.68709362 61.16788375 C87.69039962 63.34526928 87.67936688 65.52234968 87.66845703 67.69970703 C87.66789316 69.25663241 87.66820901 70.81355833 87.66934204 72.3704834 C87.66991748 76.60581335 87.65813235 80.84103075 87.64419413 85.07633448 C87.63171853 89.49927867 87.63051878 93.92222525 87.62814331 98.34518433 C87.62191919 106.72456056 87.60549581 115.1038848 87.58544433 123.4832381 C87.56311427 133.0211852 87.55209919 142.55913473 87.54205346 152.09710145 C87.52113036 171.72101335 87.48593633 191.34487841 87.44140625 210.96875 C86.83336655 210.62281296 86.22532684 210.27687592 85.59886169 209.92045593 C84.79594193 209.46806046 83.99302216 209.01566498 83.16577148 208.54956055 C82.37210678 208.1004985 81.57844208 207.65143646 80.76072693 207.18876648 C77.76118835 205.61093961 74.77381435 204.65500607 71.50390625 203.78125 C70.40175781 203.47832031 69.29960937 203.17539062 68.1640625 202.86328125 C66.93558594 202.56808594 65.70710937 202.27289063 64.44140625 201.96875 C63.71598633 201.78199707 62.99056641 201.59524414 62.24316406 201.40283203 C55.1138779 199.73547565 48.34813424 199.867725 41.06640625 200.21875 C39.92429687 200.25871094 38.7821875 200.29867187 37.60546875 200.33984375 C28.71796715 200.71352279 20.06928324 201.77506927 11.44140625 203.96875 C11.4333194 203.35424484 11.42523254 202.73973969 11.41690063 202.10661316 C11.33031816 195.6653603 11.23079642 189.22439638 11.12402344 182.78344727 C11.0859256 180.38505944 11.05104058 177.9866182 11.01953125 175.58813477 C10.97346129 172.12496959 10.91553855 168.66216609 10.85546875 165.19921875 C10.84391754 164.14043015 10.83236633 163.08164154 10.82046509 161.99076843 C10.63234626 152.3316341 10.13226183 144.44098618 4.87280273 136.14575195 C-0.317238 126.99411385 0.46173485 117.40480181 0.5390625 107.13671875 C0.52966242 105.04777987 0.51719543 102.95885276 0.5018158 100.86994934 C0.46977151 95.41345577 0.47896624 89.95780801 0.49719238 84.50128174 C0.50840113 78.91677822 0.47999779 73.33248536 0.45507812 67.74804688 C0.41208236 56.82146396 0.41271742 45.89536367 0.44140625 34.96875 C-0.21859375 34.96875 -0.87859375 34.96875 -1.55859375 34.96875 C-1.55859375 64.33875 -1.55859375 93.70875 -1.55859375 123.96875 C-5.45469963 122.02069706 -9.05121463 119.82421006 -12.73046875 117.50390625 C-20.5728193 113.24693972 -27.54631262 112.38617639 -36.40039062 112.23632812 C-42.74555126 111.85629197 -42.74555126 111.85629197 -45.18920898 109.1887207 C-46.50390625 107.0390625 -46.50390625 107.0390625 -47.54736328 104.91064453 C-49.31220226 101.52157421 -52.21394785 99.64107295 -55.55859375 97.96875 C-56.93205725 97.81870027 -58.31144635 97.72036994 -59.69140625 97.65234375 C-60.49707031 97.61044922 -61.30273438 97.56855469 -62.1328125 97.52539062 C-62.97457031 97.48607422 -63.81632812 97.44675781 -64.68359375 97.40625 C-65.95783203 97.34147461 -65.95783203 97.34147461 -67.2578125 97.27539062 C-69.35787598 97.16920764 -71.45821323 97.06846503 -73.55859375 96.96875 C-74.0175 96.01613281 -74.47640625 95.06351562 -74.94921875 94.08203125 C-75.56868349 92.81494428 -76.18849356 91.5480261 -76.80859375 90.28125 C-77.10894531 89.65541016 -77.40929687 89.02957031 -77.71875 88.38476562 C-81.14490248 81.42311538 -84.6581399 77.55167796 -91.55859375 73.96875 C-91.82134971 70.4285064 -91.98019704 66.89076867 -92.12109375 63.34375 C-92.19650391 62.34472656 -92.27191406 61.34570312 -92.34960938 60.31640625 C-92.56496292 53.09009839 -92.56496292 53.09009839 -89.92602539 50.1496582 C-87.54904009 48.52822134 -85.13626176 47.24677885 -82.55859375 45.96875 C-80.69783899 44.90964587 -78.83987043 43.84563517 -76.984375 42.77734375 C-74.94819102 41.65079179 -72.910358 40.52721648 -70.87109375 39.40625 C-62.72276519 34.88605744 -54.62778235 30.29805022 -46.62109375 25.53125 C-38.32436209 20.59177198 -29.98807573 15.72543682 -21.62109375 10.90625 C-20.52482666 10.27468994 -19.42855957 9.64312988 -18.29907227 8.99243164 C-16.268474 7.82372951 -14.23550765 6.65912796 -12.19970703 5.49951172 C-10.59178473 4.56757672 -8.99714981 3.6114909 -7.42919922 2.61376953 C-4.8480155 0.98827065 -3.09392933 -0.03778845 0 0 Z " fill="#03293C" transform="translate(332.55859375,256.03125)"/>
<path d="M0 0 C3.465 0.061875 6.93 0.12375 10.5 0.1875 C10.5 8.1075 10.5 16.0275 10.5 24.1875 C7.27734375 24.35026042 4.0546875 24.51302083 0.83203125 24.67578125 C-2.70651817 25.21921616 -4.65097014 26.05705316 -7.5 28.1875 C-10.14309379 32.15214068 -9.78057331 35.56849124 -9.76069641 40.17037964 C-9.76452196 41.10046502 -9.76834751 42.03055041 -9.77228898 42.9888202 C-9.78264304 46.1187429 -9.77862225 49.24848299 -9.7746582 52.37841797 C-9.77900337 54.61702648 -9.78418586 56.85563349 -9.79014587 59.09423828 C-9.80356875 65.18512787 -9.80411085 71.27595554 -9.80158257 77.36685705 C-9.800515 82.44655234 -9.80539079 87.52623499 -9.810188 92.60592759 C-9.82193039 105.27343029 -9.82105163 117.94089499 -9.81463119 130.60839714 C-9.80946282 141.61089198 -9.82071418 152.61329825 -9.83972941 163.61577557 C-9.85909997 174.91037535 -9.86707356 186.20493435 -9.86360615 197.49955475 C-9.86179035 203.84169295 -9.86445896 210.18375007 -9.87832069 216.52587509 C-9.89086713 222.48974773 -9.88898507 228.45344281 -9.87590981 234.41731262 C-9.87353745 236.6082935 -9.87630215 238.79928675 -9.88453293 240.99025345 C-9.89494639 243.97726125 -9.886943 246.96366729 -9.8742218 249.95065308 C-9.88159609 250.82117872 -9.88897037 251.69170437 -9.89656812 252.58860958 C-9.85042209 257.72614272 -9.31486071 261.37263929 -5.5 265.1875 C-3.58905061 265.28408904 -1.67448134 265.30937192 0.23890686 265.30775452 C2.10891106 265.30981651 2.10891106 265.30981651 4.01669312 265.31192017 C5.41094994 265.30838056 6.80520653 265.30474574 8.19946289 265.30102539 C9.65771991 265.30074353 11.11597707 265.30090124 12.57423401 265.3014679 C16.54513485 265.3017559 20.51600575 265.29585877 24.48689961 265.28889394 C28.63225101 265.28266081 32.77760302 265.28205663 36.92295837 265.28086853 C44.77819327 265.27775509 52.63341432 265.26954154 60.48864311 265.25951904 C69.42924399 265.24835829 78.36984552 265.24284755 87.31045163 265.23782361 C105.70697561 265.22735893 124.1034867 265.20975925 142.5 265.1875 C141.94343719 264.15739304 141.38687439 263.12728607 140.81344604 262.06596375 C140.07976621 260.70119025 139.34622234 259.33634366 138.61279297 257.97143555 C138.06313118 256.95538868 138.06313118 256.95538868 137.50236511 255.91881561 C126.30684247 235.04497993 124.77087838 210.24307829 130.4296875 187.44140625 C134.77229502 173.29049555 141.70376267 160.29554449 151.5 149.1875 C151.94214844 148.60355469 152.38429688 148.01960937 152.83984375 147.41796875 C164.60763634 132.14487624 185.19366339 121.01546057 203.8828125 117.5625 C208.09170364 117.12615707 212.21124571 117.07829421 216.4375 117.125 C220.4284375 117.1559375 220.4284375 117.1559375 224.5 117.1875 C224.5 126.0975 224.5 135.0075 224.5 144.1875 C221.7775 144.6 219.055 145.0125 216.25 145.4375 C199.21959006 148.209928 186.88728335 154.05173509 174.5 166.1875 C173.87222656 166.77917969 173.24445313 167.37085938 172.59765625 167.98046875 C162.2304995 178.629725 156.67425649 194.6267195 155.5 209.1875 C155.42072266 210.14269531 155.42072266 210.14269531 155.33984375 211.1171875 C154.7111925 225.60349882 159.23801484 241.29397463 167.5 253.0625 C170.57353241 257.72996498 170.57353241 257.72996498 169.9375 261.6875 C168.8984375 263.32421875 168.8984375 263.32421875 167.5 265.1875 C166.97664062 266.01894531 166.45328125 266.85039063 165.9140625 267.70703125 C158.34559473 279.12360183 148.52921047 286.956092 135.5 291.1875 C134.56331482 291.53084381 133.62662964 291.87418762 132.66156006 292.22793579 C126.92038391 293.84234785 120.94244099 293.48225927 115.02832031 293.47802734 C113.66583897 293.4840191 112.30336101 293.49082613 110.94088745 293.49838257 C107.25471221 293.51598586 103.56862994 293.52073559 99.88241673 293.52201414 C97.57450213 293.52343974 95.26661087 293.52771709 92.95870209 293.53300858 C84.89302582 293.55149144 76.82741549 293.55968154 68.76171875 293.55810547 C61.26641982 293.55690516 53.77140935 293.57799015 46.27618337 293.6095928 C39.82240687 293.63582576 33.36872416 293.64646981 26.91489482 293.64519465 C23.06866088 293.64468699 19.22268339 293.65026042 15.37650299 293.67155075 C11.75495317 293.69105167 8.13390129 293.69097787 4.51233292 293.67651749 C2.56667897 293.67346145 0.62102433 293.6900233 -1.32455444 293.70739746 C-10.22437241 293.64428571 -17.56808325 292.0370519 -25.3125 287.5625 C-30.30297691 282.14426792 -34.61111685 275.45599792 -34.6398077 267.94753361 C-34.64549894 267.07811195 -34.65119018 266.2086903 -34.65705389 265.31292254 C-34.65823376 264.35710942 -34.65941364 263.40129631 -34.66062927 262.41651917 C-34.66571709 261.40153459 -34.67080491 260.38655002 -34.67604691 259.34080833 C-34.69180345 255.92325187 -34.70030501 252.5057166 -34.70874023 249.08813477 C-34.71827629 246.64413823 -34.72816734 244.20014306 -34.73838806 241.75614929 C-34.76709422 234.40837924 -34.78686209 227.06060949 -34.80378041 219.71280494 C-34.80857676 217.63626288 -34.81355994 215.55972133 -34.81858563 213.48317981 C-34.84956489 200.58046192 -34.87624306 187.67773951 -34.89300442 174.77499485 C-34.89695376 171.78627578 -34.90095677 168.79755679 -34.9050293 165.80883789 C-34.90654184 164.6946237 -34.90654184 164.6946237 -34.90808494 163.55790012 C-34.92507347 151.538356 -34.96616156 139.51901843 -35.01705229 127.49957503 C-35.06890633 115.15064724 -35.09795715 102.80182544 -35.1052013 90.45278972 C-35.10985447 83.52289303 -35.12450912 76.59333422 -35.1649456 69.66354561 C-35.20297146 63.13900878 -35.21020292 56.61494147 -35.19693947 50.0902729 C-35.19699333 47.70063981 -35.20725305 45.31098087 -35.2286911 42.92144394 C-35.43216588 18.95232422 -35.43216588 18.95232422 -28.5 10.1875 C-19.96736597 1.75913523 -11.67070961 -0.29631295 0 0 Z " fill="#042A3C" transform="translate(140.5,377.8125)"/>
<path d="M0 0 C10.23 0 20.46 0 31 0 C38.84589705 13.56533603 46.66826126 27.13742567 54.35742188 40.79199219 C57.75822521 46.82411994 61.20418018 52.82768602 64.6875 58.8125 C69.92055356 67.80421125 74.98099818 76.88740884 80 86 C82.75717382 83.54248541 84.32369527 80.87739118 86.08203125 77.64453125 C86.67693359 76.55970459 87.27183594 75.47487793 87.88476562 74.35717773 C88.19841064 73.78023163 88.51205566 73.20328552 88.83520508 72.6088562 C90.50921625 69.5318727 92.20178941 66.4651458 93.89453125 63.3984375 C94.23936554 62.77321701 94.58419983 62.14799652 94.93948364 61.50382996 C99.29838941 53.62144444 103.86852522 45.86409926 108.4296875 38.09765625 C110.99877069 33.72216399 113.54275461 29.33313398 116.0703125 24.93359375 C116.57978424 24.04730537 116.57978424 24.04730537 117.09954834 23.14311218 C118.74467659 20.28035607 120.38747351 17.41631138 122.02734375 14.55053711 C122.61902344 13.52065674 123.21070313 12.49077637 123.8203125 11.4296875 C124.33867676 10.52460449 124.85704102 9.61952148 125.39111328 8.68701172 C127.16178886 5.72979541 129.08806016 2.86790976 131 0 C141.23 0 151.46 0 162 0 C162 52.8 162 105.6 162 160 C151.44 160 140.88 160 130 160 C129.97735301 149.98550028 129.95902946 139.97101774 129.94818783 129.95649815 C129.94298281 125.30570583 129.93592865 120.65493205 129.92456055 116.00415039 C129.91364675 111.51079566 129.90770525 107.01745869 129.90512276 102.52409172 C129.90328376 100.81500914 129.8996928 99.10592746 129.89426994 97.39685249 C129.86930918 89.19964827 129.87752834 81.13791955 131 73 C131.06244167 70.47985402 131.08697379 67.95830062 131.0625 65.4375 C131.05347656 64.21933594 131.04445313 63.00117188 131.03515625 61.74609375 C131.02355469 60.83988281 131.01195312 59.93367188 131 59 C123.60757779 71.51963744 116.33394832 84.0821108 109.42333984 96.87475586 C105.82311011 103.52714411 102.12991999 110.12120692 98.375 116.6875 C97.61098877 118.02494263 97.61098877 118.02494263 96.83154297 119.3894043 C94.95714616 122.65570838 93.08988841 125.86516738 91 129 C88.84521484 129.34057617 88.84521484 129.34057617 86.2109375 129.29296875 C85.26992188 129.28330078 84.32890625 129.27363281 83.359375 129.26367188 C82.37453125 129.23853516 81.3896875 129.21339844 80.375 129.1875 C79.38242187 129.17396484 78.38984375 129.16042969 77.3671875 129.14648438 C74.91091928 129.11105743 72.45572715 129.06166196 70 129 C69.7097998 128.45923828 69.41959961 127.91847656 69.12060547 127.36132812 C62.68610026 115.39971579 56.05933933 103.57816413 49.17041016 91.87231445 C44.76805739 84.37212332 40.52337612 76.79705039 36.37475586 69.15380859 C35.95718018 68.38504395 35.53960449 67.6162793 35.109375 66.82421875 C34.74811523 66.15479248 34.38685547 65.48536621 34.01464844 64.7956543 C33.08576343 63.15177815 32.04736389 61.57104584 31 60 C31 92.67 31 125.34 31 159 C20.77 159 10.54 159 0 159 C0 106.53 0 54.06 0 0 Z " fill="#02293B" transform="translate(561,429)"/>
<path d="M0 0 C11.87395121 8.73132292 20.47345176 21.34036376 23 36 C23.9740539 48.951218 24.39017882 61.38919763 18 73 C17.56558594 73.87269531 17.13117188 74.74539063 16.68359375 75.64453125 C8.86301259 90.14936981 -4.11763625 97.91137741 -19.3125 103 C-35.37949453 106.70218398 -52.24890279 104.0778513 -66.40625 95.75 C-78.81729118 87.37628547 -87.67496447 75.12066257 -91.25 60.5 C-94.23041178 43.2619427 -91.44723871 27.77790955 -82 13 C-62.40340142 -13.79285988 -26.98842649 -16.29430204 0 0 Z " fill="#038C92" transform="translate(1414,487)"/>
<path d="M0 0 C2.50898725 2.20475376 4.88987879 4.4773597 7.234375 6.85546875 C7.80929687 7.42007812 8.38421875 7.9846875 8.9765625 8.56640625 C19.17117477 19.39488042 22.73947257 33.7948042 22.58374023 48.23193359 C22.17845375 61.32474797 17.0878616 75.72054426 7.8671875 85.3515625 C-7.03657335 99.07871065 -22.67085299 103.80555422 -42.53466797 102.99902344 C-57.0471098 102.06519593 -70.0003119 94.34286486 -79.765625 83.85546875 C-91.74319938 69.4363119 -94.18460174 53.0467506 -92.765625 34.85546875 C-90.33106643 21.02274959 -82.41831153 8.90409218 -71.57421875 0.0703125 C-50.42191602 -14.72494755 -20.95010582 -16.24520917 0 0 Z " fill="#038C92" transform="translate(1193.765625,488.14453125)"/>
<path d="M0 0 C0.88107422 -0.00773437 1.76214844 -0.01546875 2.66992188 -0.0234375 C16.39556503 0.017081 30.06842427 4.32826908 40.19140625 13.91015625 C47.44290137 21.8886183 50.77588844 31.35421698 50.66455078 42.11303711 C50.66484283 42.86508423 50.66513489 43.61713135 50.66543579 44.39196777 C50.66405318 46.85388112 50.64854295 49.31548391 50.6328125 51.77734375 C50.62907856 53.49369644 50.62623339 55.21005127 50.62423706 56.92640686 C50.61663059 61.42597421 50.59700798 65.92541078 50.5748291 70.42492676 C50.5543061 75.02350089 50.54522158 79.62209632 50.53515625 84.22070312 C50.51375906 93.23053521 50.47860149 102.24023623 50.4375 111.25 C40.8675 111.25 31.2975 111.25 21.4375 111.25 C21.1075 107.62 20.7775 103.99 20.4375 100.25 C19.48875 101.301875 18.54 102.35375 17.5625 103.4375 C10.07265865 110.92734135 0.0523994 114.43436721 -10.42626953 114.63037109 C-18.56312517 114.61252355 -25.36417148 114.48198435 -32.5625 110.25 C-33.34882812 109.82589844 -34.13515625 109.40179687 -34.9453125 108.96484375 C-43.29674054 104.01738061 -47.94138014 96.46760484 -50.5625 87.25 C-52.06454679 77.64261006 -51.39310684 68.19651719 -46.390625 59.734375 C-39.70011271 50.64214034 -29.65958441 45.10601836 -18.5625 43.25 C-14.51736106 42.92603091 -10.49443732 42.87010881 -6.4375 42.875 C-5.33543213 42.87371094 -4.23336426 42.87242187 -3.09790039 42.87109375 C5.3310782 42.98016663 12.55995676 44.09334582 20.4375 47.25 C19.39661117 37.08660644 19.39661117 37.08660644 13.4375 29.25 C8.72550171 26.37429516 4.61624619 25.70328415 -0.8125 25.75 C-1.93640137 25.75640503 -1.93640137 25.75640503 -3.08300781 25.76293945 C-10.10537187 25.97755382 -15.93507163 27.751793 -21.09765625 32.73046875 C-21.51917969 33.19066406 -21.94070313 33.65085937 -22.375 34.125 C-23.096875 34.82625 -23.81875 35.5275 -24.5625 36.25 C-29.5227412 36.11737323 -32.88083001 33.169506 -36.6875 30.3125 C-37.91912101 29.40734818 -39.15088668 28.50239317 -40.3828125 27.59765625 C-41.43210937 26.82292969 -42.48140625 26.04820312 -43.5625 25.25 C-44.5525 24.59 -45.5425 23.93 -46.5625 23.25 C-45.84474851 18.40517745 -43.19508018 15.57002301 -39.4609375 12.55078125 C-27.15917321 3.54901405 -15.14076975 -0.13349687 0 0 Z " fill="#03293C" transform="translate(789.5625,476.75)"/>
<path d="M0 0 C9.20504022 6.18959601 14.31336588 16.07525766 16.6640625 26.68359375 C17.32343806 32.80933775 17.13246555 38.98607916 17.0546875 45.13671875 C17.04721065 46.8907608 17.04152456 48.6448113 17.03753662 50.39886475 C17.02239373 54.97580757 16.98321246 59.55222824 16.9387207 64.12896729 C16.89752058 68.81507304 16.87947321 73.50126464 16.859375 78.1875 C16.81670482 87.35312882 16.74645059 96.51823582 16.6640625 105.68359375 C6.4340625 105.68359375 -3.7959375 105.68359375 -14.3359375 105.68359375 C-14.39201172 98.33400391 -14.39201172 98.33400391 -14.44921875 90.8359375 C-14.4795114 87.72327279 -14.51066761 84.61066436 -14.54492188 81.49804688 C-14.59915435 76.56261094 -14.65026776 71.62728634 -14.68237305 66.69165039 C-14.70847141 62.71032806 -14.74891928 58.72938168 -14.79912376 54.74829292 C-14.81574849 53.23298396 -14.82729006 51.71761004 -14.83355141 50.20222282 C-14.84324092 48.07183733 -14.87135506 45.94240414 -14.90356445 43.81225586 C-14.91466751 42.60202255 -14.92577057 41.39178925 -14.93721008 40.1448822 C-15.61490601 34.26191309 -17.65673041 29.51203591 -22.3359375 25.68359375 C-27.50653814 22.46504009 -33.47396945 23.13600871 -39.3359375 23.68359375 C-45.31700654 25.21026404 -48.60321153 28.65967989 -52.109375 33.5859375 C-54.79274855 38.17501901 -55.5928556 41.9023971 -55.65478516 47.21801758 C-55.67465485 48.5189888 -55.69452454 49.81996002 -55.71499634 51.16035461 C-55.72687101 52.57044302 -55.73853397 53.98053322 -55.75 55.390625 C-55.7687211 56.84080598 -55.78829522 58.29097617 -55.8086853 59.74113464 C-55.85991319 63.54684071 -55.89958864 67.35258205 -55.93682861 71.15844727 C-55.98398458 75.73078516 -56.04554219 80.30294929 -56.10467529 84.87514496 C-56.19277368 91.81122405 -56.26261894 98.74727176 -56.3359375 105.68359375 C-66.5659375 105.68359375 -76.7959375 105.68359375 -87.3359375 105.68359375 C-87.3359375 69.71359375 -87.3359375 33.74359375 -87.3359375 -3.31640625 C-77.4359375 -3.31640625 -67.5359375 -3.31640625 -57.3359375 -3.31640625 C-57.0059375 1.63359375 -56.6759375 6.58359375 -56.3359375 11.68359375 C-55.0984375 9.88921875 -55.0984375 9.88921875 -53.8359375 8.05859375 C-40.47971323 -9.56290493 -18.17250842 -10.24102899 0 0 Z " fill="#042A3C" transform="translate(992.3359375,483.31640625)"/>
<path d="M0 0 C3.81872344 0.68769059 6.36971755 1.61119408 9.6328125 3.73828125 C10.51179199 4.30514648 11.39077148 4.87201172 12.29638672 5.45605469 C13.2298291 6.06868164 14.16327148 6.68130859 15.125 7.3125 C17.10914319 8.59541066 19.09352235 9.87795646 21.078125 11.16015625 C22.07263672 11.8061377 23.06714844 12.45211914 24.09179688 13.11767578 C28.3318138 15.86201178 32.60130314 18.55852937 36.875 21.25 C37.64070313 21.73355957 38.40640625 22.21711914 39.1953125 22.71533203 C43.02453208 25.13228185 46.8598078 27.53912073 50.703125 29.93359375 C51.44836426 30.39797852 52.19360352 30.86236328 52.96142578 31.34082031 C54.37041647 32.21782241 55.7802078 33.09353991 57.19091797 33.96777344 C61.89134182 36.89134182 61.89134182 36.89134182 63 38 C63.09571971 39.49283798 63.12188227 40.99019655 63.12025452 42.48609924 C63.12162918 43.45510162 63.12300385 44.424104 63.12442017 45.42247009 C63.11902725 47.03007957 63.11902725 47.03007957 63.11352539 48.67016602 C63.11367142 49.79197266 63.11381744 50.9137793 63.1139679 52.06958008 C63.1132682 55.79770811 63.10547315 59.52578689 63.09765625 63.25390625 C63.09579227 65.83080518 63.09436827 68.40770447 63.09336853 70.98460388 C63.08993342 77.08675115 63.0820426 83.18887794 63.07201904 89.29101747 C63.06085689 96.2364925 63.0553472 103.18196835 63.05032361 110.12745011 C63.03985996 124.41830966 63.02226115 138.7091542 63 153 C59.1616537 154.65702733 57.04477621 155.46306589 53 154 C51.33422852 152.34521484 51.33422852 152.34521484 49.87890625 150.2109375 C49.33556641 149.43363281 48.79222656 148.65632812 48.23242188 147.85546875 C47.68134766 147.03691406 47.13027344 146.21835937 46.5625 145.375 C39.87737139 134.45729498 39.87737139 134.45729498 30 127 C24.17797795 127.23147799 19.89883338 129.25464002 14.875 131.9375 C13.49831965 132.65671899 12.12073559 133.37421123 10.7421875 134.08984375 C10.10120117 134.4235498 9.46021484 134.75725586 8.79980469 135.10107422 C6.5835955 136.20797631 4.3213613 137.13739298 2 138 C0 136 0 136 -0.24609566 133.62994194 C-0.24425207 132.62887476 -0.24240849 131.62780758 -0.24050903 130.59640503 C-0.24325836 129.44933075 -0.24600769 128.30225647 -0.24884033 127.12042236 C-0.24164978 125.85591248 -0.23445923 124.59140259 -0.22705078 123.28857422 C-0.22648686 121.94839486 -0.22680286 120.60821489 -0.22793579 119.26803589 C-0.22851104 115.62358864 -0.21672908 111.9792723 -0.20278788 108.33485556 C-0.19030903 104.52851107 -0.18911227 100.72216379 -0.18673706 96.915802 C-0.1805139 89.70514863 -0.16409181 82.49455571 -0.14403808 75.28392899 C-0.12170505 67.07606662 -0.11069219 58.86820141 -0.10064721 50.66031623 C-0.07972628 33.77350915 -0.04453411 16.88676096 0 0 Z " fill="#068B91" transform="translate(432,364)"/>
<path d="M0 0 C6.72919073 4.56761512 12.31260484 10.86004901 13.9375 19 C13.97845527 20.99958062 13.98564468 23.00057956 13.9375 25 C14.6080542 24.97381592 15.2786084 24.94763184 15.96948242 24.9206543 C19.02108128 24.81642762 22.07230542 24.75159377 25.125 24.6875 C26.18009766 24.64560547 27.23519531 24.60371094 28.32226562 24.56054688 C29.34384766 24.54443359 30.36542969 24.52832031 31.41796875 24.51171875 C32.35535889 24.48553467 33.29274902 24.45935059 34.25854492 24.43237305 C38.2246717 25.27273072 39.58173784 26.72373976 41.9375 30 C42.6395289 33.11471657 42.61555476 36.13403544 42.56640625 39.31640625 C42.56881821 40.20988266 42.57123016 41.10335907 42.57371521 42.02391052 C42.57273812 43.90750581 42.55937739 45.7911303 42.53442383 47.67456055 C42.50006773 50.5568182 42.51378265 53.43601664 42.53320312 56.31835938 C42.52630565 58.15105471 42.51663416 59.98374214 42.50390625 61.81640625 C42.51134605 63.10714806 42.51134605 63.10714806 42.51893616 64.42396545 C42.50309982 65.2283757 42.48726349 66.03278595 42.47094727 66.86157227 C42.46474869 67.56596939 42.45855011 68.27036652 42.4521637 68.99610901 C41.64300157 72.14665704 40.64118233 73.15268303 37.9375 75 C34.59143385 75.59394731 31.28300904 75.53575885 27.89233398 75.50170898 C26.87244385 75.50711197 25.85255371 75.51251495 24.80175781 75.51808167 C21.42874178 75.53059467 18.05657492 75.51406133 14.68359375 75.49609375 C12.34237117 75.49624867 10.00114832 75.4977364 7.65992737 75.50050354 C2.7530687 75.50188865 -2.15349807 75.48930937 -7.06030273 75.46655273 C-13.35783623 75.43815245 -19.65488513 75.44090834 -25.95245457 75.45364285 C-30.78651589 75.46058878 -35.62046468 75.45282338 -40.45451164 75.44038582 C-42.77700304 75.43586187 -45.09950647 75.43554271 -47.42199898 75.43945122 C-50.66382863 75.44235314 -53.90498395 75.42590528 -57.14672852 75.40405273 C-58.11148605 75.40855438 -59.07624359 75.41305603 -60.07023621 75.41769409 C-60.95206573 75.40778946 -61.83389526 75.39788483 -62.7424469 75.38768005 C-63.89196508 75.38403521 -63.89196508 75.38403521 -65.06470585 75.38031673 C-67.59737177 74.89817735 -68.4894543 74.00436455 -70.0625 72 C-70.45690918 70.03370667 -70.45690918 70.03370667 -70.48242188 67.77563477 C-70.49833374 66.92787979 -70.51424561 66.08012482 -70.53063965 65.2066803 C-70.53084106 64.29413986 -70.53104248 63.38159943 -70.53125 62.44140625 C-70.53886353 61.50070786 -70.54647705 60.56000946 -70.55432129 59.59080505 C-70.56512739 57.60117243 -70.56797333 55.61148306 -70.56347656 53.62182617 C-70.56250463 50.57699989 -70.60411143 47.53469637 -70.6484375 44.49023438 C-70.65364474 42.55729693 -70.65633269 40.62435071 -70.65625 38.69140625 C-70.67264526 37.78089005 -70.68904053 36.87037384 -70.70593262 35.93226624 C-70.63757404 29.68141407 -70.63757404 29.68141407 -67.8840332 26.41870117 C-64.7312361 24.83343648 -62.8346351 24.53428588 -59.32421875 24.609375 C-57.72416992 24.62871094 -57.72416992 24.62871094 -56.09179688 24.6484375 C-54.98900391 24.68195313 -53.88621094 24.71546875 -52.75 24.75 C-51.06680664 24.77707031 -51.06680664 24.77707031 -49.34960938 24.8046875 C-46.58636553 24.85172144 -43.82487302 24.91743683 -41.0625 25 C-40.99881226 24.11574341 -40.99881226 24.11574341 -40.93383789 23.21362305 C-40.24398085 15.40826948 -37.86450783 9.60151132 -32.0625 4.10546875 C-23.29230966 -2.72132714 -10.31419751 -5.29070235 0 0 Z " fill="#03283B" transform="translate(234.0625,340)"/>
<path d="M0 0 C2.88916016 -0.34057617 2.88916016 -0.34057617 6.5390625 -0.29296875 C7.71162598 -0.28547607 8.88418945 -0.2779834 10.09228516 -0.27026367 C12.335979 -0.22929565 12.335979 -0.22929565 14.625 -0.1875 C19.36875 -0.125625 24.1125 -0.06375 29 0 C29 10.23 29 20.46 29 31 C37.91 31 46.82 31 56 31 C56 39.91 56 48.82 56 58 C47.09 58 38.18 58 29 58 C29.07407424 64.44190447 29.15697467 70.88243972 29.26245117 77.32373047 C29.2956531 79.51376188 29.3236997 81.70387789 29.34643555 83.89404297 C29.38006809 87.0469153 29.43238948 90.19901573 29.48828125 93.3515625 C29.49467117 94.32678864 29.5010611 95.30201477 29.50764465 96.30679321 C29.62117139 101.58620519 29.9855664 105.46439601 33 110 C37.36718676 112.66883635 42.18128089 112.61703304 47.11010742 111.53808594 C47.80982666 111.35536133 48.5095459 111.17263672 49.23046875 110.984375 C51.09638672 110.49710938 51.09638672 110.49710938 53 110 C54.01094544 113.39267194 55.00680051 116.78959455 56 120.1875 C56.28617188 121.14720703 56.57234375 122.10691406 56.8671875 123.09570312 C57.27324219 124.49272461 57.27324219 124.49272461 57.6875 125.91796875 C57.93886719 126.77156982 58.19023438 127.6251709 58.44921875 128.50463867 C59.02689524 131.12185115 59.24202375 133.33003281 59 136 C52.2725605 141.46604459 44.09749321 142.55838468 35.75 142.5 C34.82630615 142.49572998 33.9026123 142.49145996 32.95092773 142.48706055 C25.48801521 142.30178076 19.44434099 140.9254869 13 137 C12.08927734 136.45859375 12.08927734 136.45859375 11.16015625 135.90625 C4.05257699 130.84232585 -0.0453868 121.26264702 -2 113 C-2.38664277 108.69045009 -2.35085478 104.41378905 -2.29296875 100.08984375 C-2.28872391 98.88179581 -2.28447906 97.67374786 -2.28010559 96.42909241 C-2.26341094 92.59832788 -2.22577474 88.76810358 -2.1875 84.9375 C-2.17244131 82.32878368 -2.15875498 79.72005905 -2.14648438 77.11132812 C-2.11353742 70.74067958 -2.06181807 64.37043116 -2 58 C-7.94 58 -13.88 58 -20 58 C-20 49.09 -20 40.18 -20 31 C-14.06 31 -8.12 31 -2 31 C-2.02320313 29.01355469 -2.04640625 27.02710938 -2.0703125 24.98046875 C-2.08421996 23.05428569 -2.09805626 21.12810138 -2.10986328 19.2019043 C-2.12485495 17.20680382 -2.15026731 15.21179054 -2.17578125 13.21679688 C-2.18222656 11.96318359 -2.18867187 10.70957031 -2.1953125 9.41796875 C-2.20578613 8.26063232 -2.21625977 7.1032959 -2.22705078 5.91088867 C-2 3 -2 3 0 0 Z " fill="#052C3E" transform="translate(1036,449)"/>
<path d="M0 0 C10.23 0 20.46 0 31 0 C31 52.8 31 105.6 31 160 C20.77 160 10.54 160 0 160 C0 107.2 0 54.4 0 0 Z " fill="#058C92" transform="translate(1230,429)"/>
<path d="M0 0 C10.23 0 20.46 0 31 0 C31 35.97 31 71.94 31 109 C20.77 109 10.54 109 0 109 C0 73.03 0 37.06 0 0 Z " fill="#058D93" transform="translate(1279,480)"/>
<path d="M0 0 C10.23 0 20.46 0 31 0 C31 35.97 31 71.94 31 109 C20.77 109 10.54 109 0 109 C0 73.03 0 37.06 0 0 Z " fill="#082D3F" transform="translate(857,480)"/>
<path d="M0 0 C3.043722 1.52388356 5.29904339 3.85794108 7.67248535 6.24372864 C8.44495605 6.97366028 8.44495605 6.97366028 9.23303223 7.71833801 C10.6920166 9.16950989 10.6920166 9.16950989 12.85998535 11.93122864 C12.56403127 15.35281418 11.13080201 17.02502557 8.7364502 19.37947083 C8.078414 20.03405273 7.42037781 20.68863464 6.74240112 21.36305237 C6.02581329 22.06101929 5.30922546 22.75898621 4.57092285 23.47810364 C3.83427399 24.20813599 3.09762512 24.93816833 2.33865356 25.69032288 C-0.02225665 28.02781637 -2.39304793 30.35495992 -4.76501465 32.68122864 C-7.11387452 34.99484354 -9.46053046 37.31063029 -11.80441284 39.62928772 C-13.26259098 41.07071156 -14.7238534 42.50902457 -16.18875122 43.94361877 C-20.13485806 47.83284025 -23.85444721 51.83474173 -27.47021484 56.03187561 C-30.03025062 58.94384846 -32.75713034 61.67268919 -35.5111084 64.39997864 C-36.07830093 64.96575623 -36.64549347 65.53153381 -37.22987366 66.11445618 C-39.01004888 67.88911441 -40.79369983 69.66022963 -42.57751465 71.43122864 C-43.79845155 72.64713977 -45.01915657 73.86328379 -46.23962402 75.07966614 C-49.20375478 78.03287829 -52.17100423 80.98292262 -55.14001465 83.93122864 C-58.29399658 82.53089569 -60.45945511 80.87695968 -62.91467285 78.46296692 C-63.63834549 77.75528168 -64.36201813 77.04759644 -65.10762024 76.31846619 C-65.87756821 75.55388092 -66.64751617 74.78929565 -67.4407959 74.00154114 C-68.2365654 73.21480011 -69.0323349 72.42805908 -69.85221863 71.61747742 C-71.53005755 69.9541338 -73.20510905 68.28797443 -74.87756348 66.61921692 C-77.44810523 64.06061757 -80.03670246 61.52125853 -82.62634277 58.98200989 C-84.25313947 57.36467184 -85.87882938 55.74621962 -87.5032959 54.12654114 C-88.28336502 53.36600433 -89.06343414 52.60546753 -89.86714172 51.82188416 C-90.57505356 51.10789459 -91.28296539 50.39390503 -92.0123291 49.65827942 C-92.64202103 49.03365814 -93.27171295 48.40903687 -93.92048645 47.76548767 C-95.14001465 45.93122864 -95.14001465 45.93122864 -94.93070984 43.79594421 C-93.94099836 41.46188372 -92.75932457 40.47955364 -90.76501465 38.93122864 C-88.56307476 37.17146329 -87.14141603 35.93335874 -85.57751465 33.55622864 C-84.14001465 31.93122864 -84.14001465 31.93122864 -81.37390137 31.54255676 C-77.14682869 32.0505969 -75.891061 33.48569908 -72.96032715 36.52497864 C-72.50269989 36.99109558 -72.04507263 37.45721252 -71.57357788 37.93745422 C-70.12263928 39.42184091 -68.69400753 40.92573412 -67.26501465 42.43122864 C-66.28204308 43.444311 -65.2976814 44.45604653 -64.31188965 45.46638489 C-61.90496877 47.93927219 -59.51761097 50.43009614 -57.14001465 52.93122864 C-53.31282169 51.35709532 -50.94243177 48.9447591 -48.06774902 46.00666809 C-47.57615799 45.50733765 -47.08456696 45.0080072 -46.57807922 44.49354553 C-45.51469041 43.41254507 -44.45352899 42.32934991 -43.3943634 41.2442112 C-41.7184868 39.52887229 -40.03515342 37.82119636 -38.34936523 36.11560059 C-33.55860678 31.26682008 -28.77776692 26.40843251 -24.01159668 21.53547668 C-21.09337862 18.5529545 -18.1632059 15.58263541 -15.22505188 12.6197567 C-14.10719323 11.4876087 -12.99403394 10.35080103 -11.88566589 9.20936012 C-10.33907759 7.61724953 -8.77782052 6.04105155 -7.21228027 4.46760559 C-6.32721802 3.56540787 -5.44215576 2.66321014 -4.53027344 1.7336731 C-2.14001465 -0.06877136 -2.14001465 -0.06877136 0 0 Z " fill="#048B90" transform="translate(405.1400146484375,554.0687713623047)"/>
<path d="M0 0 C12.68611982 -0.54563956 22.43803353 1.25763065 32 10 C38.5767031 16.34781552 42.10465509 22.86628354 42.42218399 32.13470554 C42.47929144 36.29028625 42.44135855 40.442206 42.390625 44.59765625 C42.38315417 46.40082672 42.37746522 48.20400536 42.37347412 50.00718689 C42.35828398 54.72719178 42.31906016 59.44669549 42.2746582 64.16650391 C42.23356178 68.99309512 42.21543256 73.81976821 42.1953125 78.64648438 C42.15255874 88.09787509 42.0843887 97.54889568 42 107 C41.47567383 107.23187012 40.95134766 107.46374023 40.41113281 107.70263672 C38.02365093 108.75910537 35.63682055 109.81703813 33.25 110.875 C32.425 111.23980469 31.6 111.60460937 30.75 111.98046875 C29.95078125 112.33496094 29.1515625 112.68945312 28.328125 113.0546875 C27.5949707 113.37937012 26.86181641 113.70405273 26.10644531 114.03857422 C24.04524967 114.9793471 22.01995528 115.97405433 20 117 C19.99120064 115.40053276 19.99120064 115.40053276 19.98222351 113.76875305 C19.92500685 103.7190356 19.85225068 93.66953476 19.76428509 83.62003803 C19.71956044 78.453495 19.68030885 73.2870312 19.65356445 68.12036133 C19.6275525 63.13408948 19.58716484 58.14812221 19.53681374 53.1620388 C19.52013079 51.25989763 19.50862541 49.35770375 19.50238609 47.45549965 C19.49276057 44.79072781 19.46471999 42.1267377 19.43237305 39.4621582 C19.43452568 38.2828775 19.43452568 38.2828775 19.4367218 37.07977295 C19.35917116 32.56156034 18.81807994 29.58634141 16 26 C11.45398272 23.72699136 4.91320403 24.31265844 0 24 C0 16.08 0 8.16 0 0 Z " fill="#03293B" transform="translate(289,379)"/>
<path d="M0 0 C6.6539173 4.93914125 10.85656474 10.11264724 12.7734375 18.31640625 C13.82997704 28.19745219 12.91521296 36.76788832 6.5859375 44.62890625 C1.58039257 49.95260022 -4.4792676 52.86674012 -11.7421875 53.5546875 C-20.6216393 53.79570119 -26.7212448 51.46031741 -33.2265625 45.31640625 C-38.65216336 38.61419342 -40.88314898 30.38414909 -40.57421875 21.828125 C-39.51302516 14.16129942 -35.99418168 7.46753407 -30.2265625 2.31640625 C-21.75046429 -3.71431005 -9.20312648 -5.57235717 0 0 Z " fill="#FAFCFC" transform="translate(1393.2265625,508.68359375)"/>
<path d="M0 0 C6.98164652 4.09742534 11.06729237 9.54363242 13.80078125 17.1328125 C15.93703418 25.70169296 15.2945556 33.21705701 10.83984375 40.85546875 C10.39769531 41.54253906 9.95554687 42.22960937 9.5 42.9375 C8.943125 43.865625 8.38625 44.79375 7.8125 45.75 C1.84697669 51.39306259 -6.13545671 54.31101109 -14.29296875 54.14453125 C-22.20630064 53.4022187 -28.36790913 49.98686503 -33.5 43.9375 C-38.66785162 35.0804595 -39.9436602 25.77563994 -37.4375 15.8125 C-34.89172923 8.1751877 -29.38413374 2.84893963 -22.5 -1.0625 C-15.35171018 -3.44526327 -6.84147988 -3.17602947 0 0 Z " fill="#F9FCFC" transform="translate(1170.5,508.0625)"/>
<path d="M0 0 C4.63301951 4.28114461 6.76235349 8.58392715 7.375 14.8125 C7.21319971 20.1721347 5.18734172 24.57303376 1.609375 28.54296875 C-3.50362028 33.13120925 -8.97915017 34.5412806 -15.69140625 34.3828125 C-20.98483245 33.50505316 -24.77010451 30.29462683 -28.375 26.5 C-31.56723988 21.58886172 -32.50851124 17.8987304 -32 12 C-29.6438453 5.16715136 -26.55563403 0.27781701 -20 -3 C-12.88830778 -5.69753843 -6.05013529 -4.21047959 0 0 Z " fill="#048C92" transform="translate(1307,430)"/>
<path d="M0 0 C4.26416954 3.38270693 5.80898576 6.18428621 6.6484375 11.55078125 C7.05091614 18.15813894 6.06461373 22.65782927 1.96875 27.90625 C-2.41517648 32.51424384 -5.96070221 33.96625399 -12.3515625 34.19140625 C-17.75957273 33.9549905 -21.43596986 33.05029786 -25.41015625 29.171875 C-29.35281039 24.832119 -31.55194912 21.31473072 -32.1015625 15.37890625 C-31.56146184 9.11373863 -29.08239983 4.29979283 -24.7890625 -0.24609375 C-16.34651736 -6.15587535 -8.39555382 -5.566898 0 0 Z " fill="#062B3D" transform="translate(885.7890625,430.24609375)"/>
<path d="M0 0 C0.33643576 5.4951174 -0.38978457 9.13959885 -3 14 C-8.26462168 19.93957318 -13.18015854 23.55446844 -21.25390625 24.30078125 C-22.34574219 24.30464844 -23.43757812 24.30851563 -24.5625 24.3125 C-25.65691406 24.32925781 -26.75132812 24.34601562 -27.87890625 24.36328125 C-32.42043259 23.83466805 -34.98099263 21.96239585 -38.25 18.875 C-40.6221458 14.97790334 -41.33776524 11.55178869 -41 7 C-38.8263392 2.56907607 -36.03829597 -0.20425664 -32 -3 C-21.56980827 -6.47673058 -9.9134215 -3.80240825 0 0 Z " fill="#F8F9FA" transform="translate(810,544)"/>
<path d="M0 0 C3.68090876 1.22696959 6.87516346 2.30969334 10.3046875 3.9453125 C11.31764893 4.42508545 11.31764893 4.42508545 12.35107422 4.91455078 C13.18396973 5.31399902 14.01686523 5.71344727 14.875 6.125 C17.55625 7.40375 20.2375 8.6825 23 10 C23 20.56 23 31.12 23 42 C19.31909124 40.77303041 16.12483654 39.69030666 12.6953125 38.0546875 C12.02000488 37.73483887 11.34469727 37.41499023 10.64892578 37.08544922 C9.81603027 36.68600098 8.98313477 36.28655273 8.125 35.875 C4.103125 33.956875 4.103125 33.956875 0 32 C0 21.44 0 10.88 0 0 Z " fill="#F0F2F3" transform="translate(347,347)"/>
<path d="M0 0 C2.51625 1.2375 5.0325 2.475 7.625 3.75 C8.40568848 4.13124023 9.18637695 4.51248047 9.99072266 4.90527344 C10.94277588 5.37755371 10.94277588 5.37755371 11.9140625 5.859375 C12.5529541 6.17358398 13.1918457 6.48779297 13.85009766 6.81152344 C14.55956543 7.2037207 15.2690332 7.59591797 16 8 C17.0621875 8.55623047 18.124375 9.11246094 19.21875 9.68554688 C22 12 22 12 22.68115234 15.29980469 C22.64973145 16.57758789 22.61831055 17.85537109 22.5859375 19.171875 C22.57744781 19.8542926 22.56895813 20.53671021 22.56021118 21.23980713 C22.52672057 23.4115038 22.45147242 25.57943383 22.375 27.75 C22.34489374 29.22520663 22.31751905 30.7004717 22.29296875 32.17578125 C22.22695085 35.78507044 22.12346917 39.39216742 22 43 C18.50813656 41.88242976 15.18329145 40.71609893 11.9140625 39.0546875 C11.27936035 38.73483887 10.6446582 38.41499023 9.99072266 38.08544922 C9.21003418 37.68600098 8.4293457 37.28655273 7.625 36.875 C5.10875 35.59625 2.5925 34.3175 0 33 C0 22.11 0 11.22 0 0 Z " fill="#F6F7F7" transform="translate(348,302)"/>
<path d="M0 0 C1.29474243 -0.00630432 2.58948486 -0.01260864 3.92346191 -0.019104 C5.34285619 -0.01552433 6.76224924 -0.0114224 8.18164062 -0.00683594 C9.63130763 -0.00818263 11.08097419 -0.0101232 12.53063965 -0.01263428 C15.57043758 -0.01558536 18.61011805 -0.0112885 21.64990234 -0.00195312 C25.55083311 0.0094415 29.4514887 0.00288193 33.35240936 -0.00909805 C36.346355 -0.01631715 39.34023515 -0.01402852 42.33418274 -0.00884247 C43.77273084 -0.0075061 45.21128484 -0.00915324 46.64982605 -0.01380157 C48.65847666 -0.01886734 50.66714806 -0.00978038 52.67578125 0 C53.82002563 0.00159119 54.96427002 0.00318237 56.14318848 0.00482178 C58.83789062 0.25878906 58.83789062 0.25878906 60.83789062 2.25878906 C61.08789062 5.25878906 61.08789062 5.25878906 60.83789062 8.25878906 C58.08777463 11.00890506 56.52603121 10.51222397 52.67578125 10.51757812 C51.38103882 10.52388245 50.08629639 10.53018677 48.75231934 10.53668213 C47.33292506 10.53310246 45.91353201 10.52900052 44.49414062 10.52441406 C43.04447362 10.52576076 41.59480706 10.52770132 40.1451416 10.5302124 C37.10534367 10.53316348 34.0656632 10.52886663 31.02587891 10.51953125 C27.12494814 10.50813662 23.22429255 10.51469619 19.32337189 10.52667618 C16.32942625 10.53389528 13.3355461 10.53160664 10.34159851 10.52642059 C8.90305041 10.52508423 7.46449641 10.52673136 6.0259552 10.5313797 C4.01730459 10.53644546 2.00863319 10.5273585 0 10.51757812 C-1.14424438 10.51598694 -2.28848877 10.51439575 -3.46740723 10.51275635 C-6.16210938 10.25878906 -6.16210938 10.25878906 -8.16210938 8.25878906 C-8.41210938 5.25878906 -8.41210938 5.25878906 -8.16210938 2.25878906 C-5.41199338 -0.49132693 -3.85024996 0.00535416 0 0 Z " fill="#149498" transform="translate(226.162109375,468.7412109375)"/>
<path d="M0 0 C6.75 2.25 6.75 2.25 10.0859375 3.9453125 C10.72063965 4.26516113 11.3553418 4.58500977 12.00927734 4.91455078 C12.78996582 5.31399902 13.5706543 5.71344727 14.375 6.125 C18.149375 8.043125 18.149375 8.043125 22 10 C22 19.9 22 29.8 22 40 C13 37 13 37 0 31 C0 20.77 0 10.54 0 0 Z " fill="#F5F9FA" transform="translate(453,410)"/>
<path d="M0 0 C6.75 2.25 6.75 2.25 9.8671875 3.9453125 C10.46128418 4.26516113 11.05538086 4.58500977 11.66748047 4.91455078 C12.39596191 5.31399902 13.12444336 5.71344727 13.875 6.125 C16.22625 7.40375 18.5775 8.6825 21 10 C21 19.9 21 29.8 21 40 C17.27829621 39.25565924 15.19729996 38.78398291 12.01171875 37.15234375 C11.37451904 36.82999756 10.73731934 36.50765137 10.08081055 36.17553711 C8.89612183 35.56270874 8.89612183 35.56270874 7.6875 34.9375 C5.150625 33.638125 2.61375 32.33875 0 31 C0 20.77 0 10.54 0 0 Z " fill="#F9F9FA" transform="translate(379,319)"/>
<path d="M0 0 C3.44369327 1.09669042 6.69041922 2.21759642 9.8671875 3.9453125 C10.46128418 4.26516113 11.05538086 4.58500977 11.66748047 4.91455078 C12.39596191 5.31399902 13.12444336 5.71344727 13.875 6.125 C16.22625 7.40375 18.5775 8.6825 21 10 C21 19.9 21 29.8 21 40 C16.44732945 38.48244315 12.08029292 36.83596256 7.6875 34.9375 C6.73907227 34.5343457 6.73907227 34.5343457 5.77148438 34.12304688 C1.12676222 32.12676222 1.12676222 32.12676222 0 31 C-0.08790975 28.70848583 -0.10694038 26.41427476 -0.09765625 24.12109375 C-0.0962413 23.4344313 -0.09482635 22.74776886 -0.09336853 22.04029846 C-0.08775479 19.83932199 -0.07520007 17.63844591 -0.0625 15.4375 C-0.05748676 13.94856917 -0.05292355 12.45963676 -0.04882812 10.97070312 C-0.03778093 7.31376925 -0.02050713 3.65689442 0 0 Z " fill="#F8F8F9" transform="translate(379,362)"/>
<path d="M0 0 C2.49361571 1.20381448 4.68143083 2.45428722 7 4 C6.48539161 8.01783745 5.56620273 9.91769011 2.6484375 12.70703125 C1.96136719 13.37669922 1.27429688 14.04636719 0.56640625 14.73632812 C-0.15675781 15.42146484 -0.87992188 16.10660156 -1.625 16.8125 C-7.025221 22.00884526 -12.12853681 27.30420626 -17 33 C-18.92458668 35.21555652 -20.76684463 37.06459868 -23 39 C-28.35070158 38.63525634 -31.76044031 33.752034 -35.3125 30.1875 C-36.06595703 29.46240234 -36.81941406 28.73730469 -37.59570312 27.99023438 C-38.6562793 26.93352539 -38.6562793 26.93352539 -39.73828125 25.85546875 C-40.38837158 25.21246826 -41.03846191 24.56946777 -41.70825195 23.90698242 C-43 22 -43 22 -42.82104492 19.8996582 C-41.68965438 17.28195085 -40.18899447 15.80270133 -38 14 C-37.01 14 -36.02 14 -35 14 C-33.62131719 15.62935241 -32.28725907 17.29749607 -31 19 C-30.34 19.33 -29.68 19.66 -29 20 C-29 20.66 -29 21.32 -29 22 C-28.38125 22.309375 -27.7625 22.61875 -27.125 22.9375 C-25.75 23.625 -24.375 24.3125 -23 25 C-22.76877441 24.44280273 -22.53754883 23.88560547 -22.29931641 23.31152344 C-20.65365415 20.3838402 -18.60024749 18.37614812 -16.2109375 16.015625 C-15.74765045 15.55516785 -15.2843634 15.09471069 -14.80703735 14.62030029 C-13.33434102 13.15874922 -11.85482597 11.70432832 -10.375 10.25 C-9.37193678 9.25697389 -8.36932743 8.26348911 -7.3671875 7.26953125 C-4.91669165 4.84102059 -2.4600333 2.41885325 0 0 Z " fill="#0A8A8F" transform="translate(195,568)"/>
<path d="M0 0 C2.25 1.6875 2.25 1.6875 4 4 C3.8500639 8.93123163 1.34208533 11.0485273 -2.125 14.3125 C-5.38371183 17.43734947 -8.58212912 20.54837225 -11.5 24 C-14.47055075 27.44526346 -17.53639903 30.78252815 -20.6875 34.0625 C-21.38359375 34.81563477 -21.38359375 34.81563477 -22.09375 35.58398438 C-23.44921875 36.97265625 -23.44921875 36.97265625 -26 39 C-31.37655867 38.55835411 -34.72764013 33.78494937 -38.3125 30.1875 C-39.06595703 29.46240234 -39.81941406 28.73730469 -40.59570312 27.99023438 C-41.6562793 26.93352539 -41.6562793 26.93352539 -42.73828125 25.85546875 C-43.38837158 25.21246826 -44.03846191 24.56946777 -44.70825195 23.90698242 C-46 22 -46 22 -45.83276367 19.8996582 C-44.71784223 17.35635602 -43.04262222 15.8449491 -41 14 C-37.31930113 15.53643852 -35.01224796 17.78150945 -32.25 20.625 C-31.45078125 21.44226563 -30.6515625 22.25953125 -29.828125 23.1015625 C-29.22484375 23.72804688 -28.6215625 24.35453125 -28 25 C-24.27996845 21.96323955 -20.86509653 18.9706642 -17.75 15.3125 C-14.70480846 11.74824172 -11.52926605 8.34771885 -8.25 5 C-7.77788086 4.50669189 -7.30576172 4.01338379 -6.81933594 3.50512695 C-3.34955168 0 -3.34955168 0 0 0 Z " fill="#088C91" transform="translate(198,451)"/>
<path d="M0 0 C2.84383123 1.2748209 5.13754018 2.45137078 7 5 C6.74384068 9.30727157 3.85267396 11.41025644 0.875 14.25 C-2.37796565 17.39857009 -5.57110392 20.54247389 -8.5 24 C-11.47055075 27.44526346 -14.53639903 30.78252815 -17.6875 34.0625 C-18.38359375 34.81563477 -18.38359375 34.81563477 -19.09375 35.58398438 C-20.44921875 36.97265625 -20.44921875 36.97265625 -23 39 C-26.41498954 38.68799005 -28.05729586 37.29337463 -30.3828125 34.875 C-30.99253906 34.25109375 -31.60226563 33.6271875 -32.23046875 32.984375 C-32.85566406 32.32953125 -33.48085937 31.6746875 -34.125 31 C-35.3754538 29.70625147 -36.62796248 28.41448494 -37.8828125 27.125 C-38.43340332 26.55007813 -38.98399414 25.97515625 -39.55126953 25.3828125 C-40.97103318 23.89195722 -40.97103318 23.89195722 -43 23 C-42.66753345 19.92468444 -42.36895244 18.38167494 -40.1875 16.125 C-38 15 -38 15 -36.16015625 15.14453125 C-33.14907424 16.33698507 -31.47975541 18.23437303 -29.25 20.5625 C-28.45078125 21.38878906 -27.6515625 22.21507812 -26.828125 23.06640625 C-26.22484375 23.70449219 -25.6215625 24.34257813 -25 25 C-17.55960895 18.79967412 -10.83336237 12.12790415 -4.54296875 4.76171875 C-3.08919634 3.10184189 -1.57858414 1.54066019 0 0 Z " fill="#078C90" transform="translate(195,509)"/>
<path d="M0 0 C1.40564713 0.00666183 1.40564713 0.00666183 2.83969116 0.01345825 C3.90063995 0.01360931 4.96158875 0.01376038 6.0546875 0.01391602 C7.20367523 0.02423859 8.35266296 0.03456116 9.53646851 0.04519653 C10.71002899 0.04802643 11.88358948 0.05085632 13.0927124 0.05377197 C16.85271262 0.06499548 20.61247739 0.09010411 24.37240601 0.11550903 C26.91667341 0.12553602 29.46094453 0.13466236 32.00521851 0.14285278 C38.25269511 0.1649419 44.50003374 0.19844079 50.74740601 0.24050903 C49.68865526 3.64363642 48.73838446 6.25404135 46.74740601 9.24050903 C44.61543274 9.60800171 44.61543274 9.60800171 41.94638062 9.59695435 C40.94872177 9.59995544 39.95106293 9.60295654 38.923172 9.60604858 C37.84294266 9.59370178 36.76271332 9.58135498 35.64974976 9.56863403 C34.54514908 9.56676086 33.4405484 9.5648877 32.30247498 9.56295776 C29.96467069 9.55622691 27.62687786 9.54229212 25.28915405 9.52175903 C21.69635647 9.49060831 18.10399709 9.48079061 14.51107788 9.47488403 C12.24479645 9.46571444 9.97851951 9.45533881 7.71224976 9.44363403 C6.62999619 9.43938416 5.54774261 9.43513428 4.43269348 9.43075562 C2.94093346 9.4163443 2.94093346 9.4163443 1.41903687 9.40164185 C0.09904945 9.39139984 0.09904945 9.39139984 -1.24760437 9.38095093 C-3.25259399 9.24050903 -3.25259399 9.24050903 -4.25259399 8.24050903 C-4.44009399 5.30300903 -4.44009399 5.30300903 -4.25259399 2.24050903 C-2.25259399 0.24050903 -2.25259399 0.24050903 0 0 Z " fill="#068E92" transform="translate(222.25259399414063,527.7594909667969)"/>
<path d="M0 0 C2.76101146 1.82109266 4.52100548 3.04201097 6 6 C6.39431433 10.73177192 6.45299639 13.09400722 4.3125 17.375 C1.82873403 20.19441002 0.65122129 21.23579089 -3 22 C-8.30379889 21.81057861 -11.19058032 20.69737793 -15 17 C-16.74348951 13.51302098 -16.58082725 9.80409937 -16 6 C-12.35598964 -0.80965643 -7.14950139 -1.83963779 0 0 Z " fill="#F4F6F7" transform="translate(226,354)"/>
<path d="M0 0 C1.47583955 0.0001591 2.95168467 0.00585225 4.42749023 0.01586914 C5.20293686 0.01728409 5.97838348 0.01869904 6.77732849 0.02015686 C9.26361893 0.02577194 11.74982059 0.03832693 14.23608398 0.05102539 C15.91772331 0.05603845 17.59936405 0.06060169 19.28100586 0.06469727 C23.41189965 0.07574626 27.54272674 0.09302094 31.67358398 0.11352539 C31.67358398 3.08352539 31.67358398 6.05352539 31.67358398 9.11352539 C26.86809801 9.16289422 22.06275905 9.19922982 17.25708008 9.22338867 C15.62163726 9.23345793 13.98621249 9.2471142 12.35083008 9.2644043 C10.00264029 9.28861244 7.65468811 9.29999897 5.30639648 9.30883789 C4.2063176 9.32432175 4.2063176 9.32432175 3.08401489 9.34011841 C1.27895701 9.34051908 -0.52549431 9.23565294 -2.32641602 9.11352539 C-4.32641602 7.11352539 -4.32641602 7.11352539 -4.51391602 4.05102539 C-4.24870896 -0.10388512 -4.23370724 0.14448983 0 0 Z " fill="#088B91" transform="translate(222.326416015625,586.886474609375)"/>
<path d="M0 0 C0 3.96 0 7.92 0 12 C-8.415 12.495 -8.415 12.495 -17 13 C-20 6 -20 6 -20 2 C-13.25846717 0.74158054 -6.86515862 -0.26404456 0 0 Z " fill="#0A4453" transform="translate(365,469)"/>
<path d="M0 0 C4.95 0 9.9 0 15 0 C12.36 5.61 9.72 11.22 7 17 C6.34 17 5.68 17 5 17 C5 18.32 5 19.64 5 21 C4.34 21 3.68 21 3 21 C2.67 22.32 2.34 23.64 2 25 C1.05879759 16.83325905 1.05879759 9.16674095 2 1 C1.34 0.67 0.68 0.34 0 0 Z " fill="#047079" transform="translate(363,468)"/>
<path d="M0 0 C2.35125 0.061875 2.35125 0.061875 4.75 0.125 C4.75 4.415 4.75 8.705 4.75 13.125 C-0.80528097 12.01394381 -1.5563537 11.1966128 -5.0625 7.0625 C-5.85269531 6.14339844 -6.64289063 5.22429687 -7.45703125 4.27734375 C-8.34455078 3.21193359 -8.34455078 3.21193359 -9.25 2.125 C-6.03817851 0.21891902 -3.71117397 -0.09766247 0 0 Z " fill="#98CED0" transform="translate(359.25,480.875)"/>
<path d="M0 0 C2.86697492 1.28519565 4.97607712 2.57129254 7 5 C7 5.66 7 6.32 7 7 C4.03 8.32 1.06 9.64 -2 11 C-2.99 10.01 -3.98 9.02 -5 8 C-4.90311287 4.99649894 -3.98152289 3.97984316 -1.9375 1.75 C-1.298125 1.1725 -0.65875 0.595 0 0 Z " fill="#0D9298" transform="translate(157,465)"/>
<path d="M0 0 C0.66 1.65 1.32 3.3 2 5 C-1.625 9.875 -1.625 9.875 -5 11 C-6.5625 9.75 -6.5625 9.75 -8 8 C-7.90664164 5.10589098 -6.98479822 3.98175786 -5.125 1.75 C-3 0 -3 0 0 0 Z " fill="#14979F" transform="translate(160,582)"/>
<path d="M0 0 C1.08152344 -0.01417969 2.16304687 -0.02835937 3.27734375 -0.04296875 C6.0625 0.1875 6.0625 0.1875 8.0625 2.1875 C3.41400485 4.5867233 -0.84836074 4.38707409 -5.9375 4.1875 C-6.2675 3.1975 -6.5975 2.2075 -6.9375 1.1875 C-5.13003866 -0.61996134 -2.43304219 0.01446517 0 0 Z " fill="#0B8287" transform="translate(1294.9375,459.8125)"/>
<path d="M0 0 C0 3.73446789 -1.39079885 4.74622693 -3.7578125 7.4609375 C-6.75105694 11.16954854 -7.3564852 15.38814395 -8 20 C-8.33 20 -8.66 20 -9 20 C-9.41669147 13.19403933 -7.9030237 8.65269971 -3.9375 3.125 C-2 1 -2 1 0 0 Z " fill="#20969C" transform="translate(1284,429)"/>
<path d="M0 0 C2.31 0 4.62 0 7 0 C7.33 0.66 7.66 1.32 8 2 C8.99 2.66 9.98 3.32 11 4 C7.04 3.67 3.08 3.34 -1 3 C-0.67 2.01 -0.34 1.02 0 0 Z " fill="#057D83" transform="translate(1155,502)"/>
<path d="M0 0 C0.66 0.66 1.32 1.32 2 2 C0.47005208 3.23697917 -1.05989583 4.47395833 -2.58984375 5.7109375 C-4.13266437 6.9666391 -4.13266437 6.9666391 -5 9 C-5.66 9 -6.32 9 -7 9 C-7 9.66 -7 10.32 -7 11 C-7.66 10.67 -8.32 10.34 -9 10 C-8.06862408 8.70391053 -7.1296434 7.41328368 -6.1875 6.125 C-5.66542969 5.40570313 -5.14335937 4.68640625 -4.60546875 3.9453125 C-3 2 -3 2 0 0 Z " fill="#1A3A4E" transform="translate(205,342)"/>
<path d="M0 0 C0.66 0 1.32 0 2 0 C2 2.64 2 5.28 2 8 C0.35 8 -1.3 8 -3 8 C-1.125 2.25 -1.125 2.25 0 0 Z " fill="#058387" transform="translate(252,587)"/>
<path d="M0 0 C0.66 0.33 1.32 0.66 2 1 C2.625 4.0625 2.625 4.0625 3 7 C1.68 7.33 0.36 7.66 -1 8 C-1.93065133 5.39417629 -2.14917407 4.35801776 -1.0625 1.75 C-0.711875 1.1725 -0.36125 0.595 0 0 Z " fill="#082230" transform="translate(299,617)"/>
<path d="M0 0 C1.20371769 3.61115306 0.71183147 4.24109758 -0.875 7.5625 C-1.24367188 8.34753906 -1.61234375 9.13257813 -1.9921875 9.94140625 C-2.65585155 11.29703011 -3.32499392 12.64998784 -4 14 C-4.66 14 -5.32 14 -6 14 C-4.50829734 9.0276578 -2.39542583 4.58154261 0 0 Z " fill="#133044" transform="translate(281,542)"/>
<path d="M0 0 C0.33 0 0.66 0 1 0 C1 5.28 1 10.56 1 16 C0.67 16 0.34 16 0 16 C-0.33 12.7 -0.66 9.4 -1 6 C-1.99 6.495 -1.99 6.495 -3 7 C-1.125 2.25 -1.125 2.25 0 0 Z " fill="#B2BFC6" transform="translate(692,486)"/>
<path d="M0 0 C0 3.77910478 -0.99703962 4.46106101 -3.5 7.1875 C-4.47453125 8.26064453 -4.47453125 8.26064453 -5.46875 9.35546875 C-5.9740625 9.89816406 -6.479375 10.44085938 -7 11 C-7.33 10.01 -7.66 9.02 -8 8 C-5.46209694 4.54563194 -3.56854354 2.37902903 0 0 Z " fill="#173244" transform="translate(751,489)"/>
<path d="M0 0 C0.66 0.66 1.32 1.32 2 2 C0.71937515 3.7074998 -0.61767557 5.37373596 -2 7 C-2.66 7 -3.32 7 -4 7 C-3.6875 4.625 -3.6875 4.625 -3 2 C-2.01 1.34 -1.02 0.68 0 0 Z " fill="#1F9497" transform="translate(156,525)"/>
<path d="M0 0 C0.33 0.99 0.66 1.98 1 3 C-0.98 4.98 -2.96 6.96 -5 9 C-5.66 8.67 -6.32 8.34 -7 8 C-4.69 5.36 -2.38 2.72 0 0 Z " fill="#1A9299" transform="translate(182,464)"/>
<path d="M0 0 C0.99 0 1.98 0 3 0 C3 0.66 3 1.32 3 2 C3.99 2.33 4.98 2.66 6 3 C5.01 4.485 5.01 4.485 4 6 C2.62437146 4.71034824 1.29233607 3.37310707 0 2 C0 1.34 0 0.68 0 0 Z " fill="#0C868C" transform="translate(1346,578)"/>
<path d="M0 0 C0.66 0.66 1.32 1.32 2 2 C0.37660195 3.70884005 -1.29319053 5.37446717 -3 7 C-3.66 7 -4.32 7 -5 7 C-3.88820837 3.66462511 -2.52588702 2.36292656 0 0 Z " fill="#1E3C4F" transform="translate(806,558)"/>
<path d="M0 0 C3.63 0 7.26 0 11 0 C10.34 1.32 9.68 2.64 9 4 C8.67 3.01 8.34 2.02 8 1 C5.36 1 2.72 1 0 1 C0 0.67 0 0.34 0 0 Z " fill="#1B979E" transform="translate(262,528)"/>
<path d="M0 0 C0.99 0.33 1.98 0.66 3 1 C2.67 1.99 2.34 2.98 2 4 C0.35 4.33 -1.3 4.66 -3 5 C-1.125 1.125 -1.125 1.125 0 0 Z " fill="#108C8E" transform="translate(444,493)"/>
<path d="M0 0 C0 1.65 0 3.3 0 5 C-0.99 5 -1.98 5 -3 5 C-3.33 5.66 -3.66 6.32 -4 7 C-4.66 6.67 -5.32 6.34 -6 6 C-3.4 0 -3.4 0 0 0 Z " fill="#F3F5F7" transform="translate(692,491)"/>
<path d="M0 0 C0.66 0.66 1.32 1.32 2 2 C1.01 3.485 1.01 3.485 0 5 C-0.39013716 6.9896995 -0.73202649 8.99019869 -1 11 C-1.33 11 -1.66 11 -2 11 C-2.28571429 3.57142857 -2.28571429 3.57142857 0 0 Z " fill="#42AAB0" transform="translate(1277,438)"/>
</svg>
